<svg width="24" height="25" viewBox="0 0 24 25" fill="none" xmlns="http://www.w3.org/2000/svg">
<g clip-path="url(#clip0_656_2830)">
<g clip-path="url(#clip1_656_2830)">
<path d="M11.1631 4.14062H19.2657C19.8687 4.14062 20.3572 4.6292 20.3572 5.2322V13.9468C20.3572 14.5511 19.8687 15.0396 19.2657 15.0396H12.6417M7.04752 8.64191C7.64443 8.64191 8.21689 8.40479 8.63896 7.98271C9.06104 7.56064 9.29816 6.98818 9.29816 6.39127C9.29816 5.79436 9.06104 5.2219 8.63896 4.79982C8.21689 4.37775 7.64443 4.14062 7.04752 4.14062C6.45061 4.14062 5.87815 4.37775 5.45607 4.79982C5.034 5.2219 4.79688 5.79436 4.79688 6.39127C4.79688 6.98818 5.034 7.56064 5.45607 7.98271C5.87815 8.40479 6.45061 8.64191 7.04752 8.64191Z" stroke="#787878" stroke-linecap="round" stroke-linejoin="round"/>
<path d="M14.5692 10.6017C14.5692 9.87268 13.9778 9.28125 13.2488 9.28125H7.04648C6.1433 9.28159 5.2772 9.64053 4.63855 10.2792C3.99991 10.9178 3.64097 11.7839 3.64062 12.6871V15.7098H5.09991L5.5872 20.8527H8.50577L9.62691 11.9234H13.2488C13.9778 11.9234 14.5692 11.332 14.5692 10.6017Z" stroke="#787878" stroke-linecap="round" stroke-linejoin="round"/>
</g>
</g>
<defs>
<clipPath id="clip0_656_2830">
<rect width="24" height="24" fill="white" transform="translate(0 0.5)"/>
</clipPath>
<clipPath id="clip1_656_2830">
<rect width="18" height="18" fill="white" transform="translate(3 3.5)"/>
</clipPath>
</defs>
</svg>
