<svg width="48" height="45" viewBox="0 0 48 45" fill="none" xmlns="http://www.w3.org/2000/svg">
<g clip-path="url(#clip0_1_82)">
<g clip-path="url(#clip1_1_82)">
<path d="M23.1631 14.1406H31.2657C31.8687 14.1406 32.3572 14.6292 32.3572 15.2322V23.9468C32.3572 24.5511 31.8687 25.0396 31.2657 25.0396H24.6417M19.0475 18.6419C19.6444 18.6419 20.2169 18.4048 20.639 17.9827C21.061 17.5606 21.2982 16.9882 21.2982 16.3913C21.2982 15.7944 21.061 15.2219 20.639 14.7998C20.2169 14.3777 19.6444 14.1406 19.0475 14.1406C18.4506 14.1406 17.8782 14.3777 17.4561 14.7998C17.034 15.2219 16.7969 15.7944 16.7969 16.3913C16.7969 16.9882 17.034 17.5606 17.4561 17.9827C17.8782 18.4048 18.4506 18.6419 19.0475 18.6419Z" stroke="#787878" stroke-linecap="round" stroke-linejoin="round"/>
<path d="M26.5692 20.6017C26.5692 19.8727 25.9778 19.2812 25.2488 19.2812H19.0465C18.1433 19.2816 17.2772 19.6405 16.6386 20.2792C15.9999 20.9178 15.641 21.7839 15.6406 22.6871V25.7098H17.0999L17.5872 30.8527H20.5058L21.6269 21.9234H25.2488C25.9778 21.9234 26.5692 21.332 26.5692 20.6017Z" stroke="#787878" stroke-linecap="round" stroke-linejoin="round"/>
</g>
</g>
<defs>
<clipPath id="clip0_1_82">
<rect width="24" height="24" fill="white" transform="translate(12 10.5)"/>
</clipPath>
<clipPath id="clip1_1_82">
<rect width="18" height="18" fill="white" transform="translate(15 13.5)"/>
</clipPath>
</defs>
</svg>
