<svg width="24" height="24" viewBox="0 0 24 24" fill="none" xmlns="http://www.w3.org/2000/svg">
<g clip-path="url(#clip0_664_4607)">
<g clip-path="url(#clip1_664_4607)">
<path d="M11.1631 3.64062H19.2657C19.8687 3.64062 20.3572 4.1292 20.3572 4.7322V13.4468C20.3572 14.0511 19.8687 14.5396 19.2657 14.5396H12.6417M7.04752 8.14191C7.64443 8.14191 8.21689 7.90479 8.63896 7.48271C9.06104 7.06064 9.29816 6.48818 9.29816 5.89127C9.29816 5.29436 9.06104 4.7219 8.63896 4.29982C8.21689 3.87775 7.64443 3.64063 7.04752 3.64062C6.45061 3.64063 5.87815 3.87775 5.45607 4.29982C5.034 4.7219 4.79688 5.29436 4.79688 5.89127C4.79688 6.48818 5.034 7.06064 5.45607 7.48271C5.87815 7.90479 6.45061 8.14191 7.04752 8.14191Z" stroke="white" stroke-linecap="round" stroke-linejoin="round"/>
<path d="M14.5692 10.1017C14.5692 9.37268 13.9778 8.78125 13.2488 8.78125H7.04648C6.1433 8.78159 5.2772 9.14053 4.63855 9.77918C3.99991 10.4178 3.64097 11.2839 3.64062 12.1871V15.2098H5.09991L5.5872 20.3527H8.50577L9.62691 11.4234H13.2488C13.9778 11.4234 14.5692 10.832 14.5692 10.1017Z" stroke="white" stroke-linecap="round" stroke-linejoin="round"/>
</g>
</g>
<defs>
<clipPath id="clip0_664_4607">
<rect width="24" height="24" fill="white"/>
</clipPath>
<clipPath id="clip1_664_4607">
<rect width="18" height="18" fill="white" transform="translate(3 3)"/>
</clipPath>
</defs>
</svg>
