<svg width="48" height="45" viewBox="0 0 48 45" fill="none" xmlns="http://www.w3.org/2000/svg">
<g clip-path="url(#clip0_1_56)">
<path d="M31.0013 19.2098L25.6683 15.0618C25.2002 14.6977 24.6242 14.5 24.0312 14.5C23.4383 14.5 22.8623 14.6977 22.3942 15.0618L17.0603 19.2098C16.7397 19.4591 16.4803 19.7783 16.302 20.1431C16.1237 20.5079 16.0311 20.9087 16.0313 21.3148V28.5148C16.0313 29.0452 16.242 29.5539 16.617 29.929C16.9921 30.3041 17.5008 30.5148 18.0313 30.5148H30.0313C30.5617 30.5148 31.0704 30.3041 31.4455 29.929C31.8205 29.5539 32.0312 29.0452 32.0312 28.5148V21.3148C32.0312 20.4918 31.6513 19.7148 31.0013 19.2098Z" stroke="#787878" stroke-linecap="round" stroke-linejoin="round"/>
<path d="M28 25.5C25.79 26.833 22.208 26.833 20 25.5" stroke="#787878" stroke-linecap="round" stroke-linejoin="round"/>
</g>
<defs>
<clipPath id="clip0_1_56">
<rect width="24" height="24" fill="white" transform="translate(12 10.5)"/>
</clipPath>
</defs>
</svg>
