<svg width="48" height="45" viewBox="0 0 48 45" fill="none" xmlns="http://www.w3.org/2000/svg">
<path d="M19 32.5V22.776C19 21.694 19 21.153 19.245 20.699C19.489 20.246 19.938 19.953 20.837 19.369L22.919 18.013C23.444 17.67 23.706 17.5 24 17.5M24 17.5C24.294 17.5 24.556 17.671 25.082 18.013L27.163 19.368C28.062 19.953 28.511 20.246 28.755 20.699C29 21.153 29 21.694 29 22.776V32.5M24 17.5V15.482M24 23.5H24.009M32 32.5V27.662C32 25.371 31.056 25.185 29 24.5M16 32.5V27.662C16 25.371 16.944 25.185 19 24.5M14 32.5H34M24 15.482V13.47C24 12.996 24 12.759 24.146 12.612C24.606 12.149 26.5 13.243 27.22 13.687C27.828 14.061 28 14.809 28 15.482H24Z" stroke="#787878" stroke-linecap="round" stroke-linejoin="round"/>
<path d="M22 32.5V29.5C22 28.557 22 28.086 22.293 27.793C22.586 27.5 23.057 27.5 24 27.5C24.943 27.5 25.414 27.5 25.707 27.793C26 28.086 26 28.557 26 29.5V32.5" stroke="#787878" stroke-linecap="round" stroke-linejoin="round"/>
</svg>
