<svg width="24" height="24" viewBox="0 0 24 24" fill="none" xmlns="http://www.w3.org/2000/svg">
<path d="M7 22V12.276C7 11.194 7 10.653 7.245 10.199C7.489 9.74599 7.938 9.45299 8.837 8.86899L10.919 7.51299C11.444 7.16999 11.706 6.99999 12 6.99999M12 6.99999C12.294 6.99999 12.556 7.17099 13.082 7.51299L15.163 8.86799C16.062 9.45299 16.511 9.74599 16.755 10.199C17 10.653 17 11.194 17 12.276V22M12 6.99999V4.98199M12 13H12.009M20 22V17.162C20 14.871 19.056 14.685 17 14M4 22V17.162C4 14.871 4.944 14.685 7 14M2 22H22M12 4.98199V2.96999C12 2.49599 12 2.25899 12.146 2.11199C12.606 1.64899 14.5 2.74299 15.22 3.18699C15.828 3.56099 16 4.30899 16 4.98199H12Z" stroke="white" stroke-linecap="round" stroke-linejoin="round"/>
<path d="M10 22V19C10 18.057 10 17.586 10.293 17.293C10.586 17 11.057 17 12 17C12.943 17 13.414 17 13.707 17.293C14 17.586 14 18.057 14 19V22" stroke="white" stroke-linecap="round" stroke-linejoin="round"/>
</svg>
