<svg width="24" height="25" viewBox="0 0 24 25" fill="none" xmlns="http://www.w3.org/2000/svg">
<path d="M7 22.5V12.776C7 11.694 7 11.153 7.245 10.699C7.489 10.246 7.938 9.95299 8.837 9.36899L10.919 8.01299C11.444 7.66999 11.706 7.49999 12 7.49999M12 7.49999C12.294 7.49999 12.556 7.67099 13.082 8.01299L15.163 9.36799C16.062 9.95299 16.511 10.246 16.755 10.699C17 11.153 17 11.694 17 12.776V22.5M12 7.49999V5.48199M12 13.5H12.009M20 22.5V17.662C20 15.371 19.056 15.185 17 14.5M4 22.5V17.662C4 15.371 4.944 15.185 7 14.5M2 22.5H22M12 5.48199V3.46999C12 2.99599 12 2.75899 12.146 2.61199C12.606 2.14899 14.5 3.24299 15.22 3.68699C15.828 4.06099 16 4.80899 16 5.48199H12Z" stroke="#787878" stroke-linecap="round" stroke-linejoin="round"/>
<path d="M10 22.5V19.5C10 18.557 10 18.086 10.293 17.793C10.586 17.5 11.057 17.5 12 17.5C12.943 17.5 13.414 17.5 13.707 17.793C14 18.086 14 18.557 14 19.5V22.5" stroke="#787878" stroke-linecap="round" stroke-linejoin="round"/>
</svg>
