<svg width="48" height="44" viewBox="0 0 48 44" fill="none" xmlns="http://www.w3.org/2000/svg">
<g clip-path="url(#clip0_1_99)">
<path d="M31.875 16.2696C32.2187 16.4651 32.5041 16.7486 32.7018 17.0909C32.8995 17.4333 33.0025 17.8222 33 18.2176V25.5016C33 26.3106 32.557 27.0566 31.842 27.4496L25.092 31.7196C24.7574 31.9033 24.3818 31.9996 24 31.9996C23.6182 31.9996 23.2426 31.9033 22.908 31.7196L16.158 27.4496C15.8082 27.2584 15.5161 26.9768 15.3124 26.6341C15.1087 26.2914 15.0008 25.9003 15 25.5016V18.2166C15 17.4076 15.443 16.6626 16.158 16.2696L22.908 12.2896C23.2525 12.0996 23.6396 12 24.033 12C24.4264 12 24.8135 12.0996 25.158 12.2896L31.908 16.2696H31.875Z" stroke="#787878" stroke-linecap="round" stroke-linejoin="round"/>
<path d="M21 22C21 22.7956 21.3161 23.5587 21.8787 24.1213C22.4413 24.6839 23.2044 25 24 25C24.7956 25 25.5587 24.6839 26.1213 24.1213C26.6839 23.5587 27 22.7956 27 22C27 21.2044 26.6839 20.4413 26.1213 19.8787C25.5587 19.3161 24.7956 19 24 19C23.2044 19 22.4413 19.3161 21.8787 19.8787C21.3161 20.4413 21 21.2044 21 22Z" stroke="#787878" stroke-linecap="round" stroke-linejoin="round"/>
</g>
<defs>
<clipPath id="clip0_1_99">
<rect width="24" height="24" fill="white" transform="translate(12 10)"/>
</clipPath>
</defs>
</svg>
