<svg width="48" height="45" viewBox="0 0 48 45" fill="none" xmlns="http://www.w3.org/2000/svg">
<g clip-path="url(#clip0_1_71)">
<path d="M15 23.5C15 23.2348 15.1054 22.9804 15.2929 22.7929C15.4804 22.6054 15.7348 22.5 16 22.5H20C20.2652 22.5 20.5196 22.6054 20.7071 22.7929C20.8946 22.9804 21 23.2348 21 23.5V29.5C21 29.7652 20.8946 30.0196 20.7071 30.2071C20.5196 30.3946 20.2652 30.5 20 30.5H16C15.7348 30.5 15.4804 30.3946 15.2929 30.2071C15.1054 30.0196 15 29.7652 15 29.5V23.5Z" stroke="#787878" stroke-linecap="round" stroke-linejoin="round"/>
<path d="M21 19.5C21 19.2348 21.1054 18.9804 21.2929 18.7929C21.4804 18.6054 21.7348 18.5 22 18.5H26C26.2652 18.5 26.5196 18.6054 26.7071 18.7929C26.8946 18.9804 27 19.2348 27 19.5V29.5C27 29.7652 26.8946 30.0196 26.7071 30.2071C26.5196 30.3946 26.2652 30.5 26 30.5H22C21.7348 30.5 21.4804 30.3946 21.2929 30.2071C21.1054 30.0196 21 29.7652 21 29.5V19.5Z" stroke="#787878" stroke-linecap="round" stroke-linejoin="round"/>
<path d="M27 15.5C27 15.2348 27.1054 14.9804 27.2929 14.7929C27.4804 14.6054 27.7348 14.5 28 14.5H32C32.2652 14.5 32.5196 14.6054 32.7071 14.7929C32.8946 14.9804 33 15.2348 33 15.5V29.5C33 29.7652 32.8946 30.0196 32.7071 30.2071C32.5196 30.3946 32.2652 30.5 32 30.5H28C27.7348 30.5 27.4804 30.3946 27.2929 30.2071C27.1054 30.0196 27 29.7652 27 29.5V15.5Z" stroke="#787878" stroke-linecap="round" stroke-linejoin="round"/>
<path d="M16 30.5H30" stroke="#787878" stroke-linecap="round" stroke-linejoin="round"/>
</g>
<defs>
<clipPath id="clip0_1_71">
<rect width="24" height="24" fill="white" transform="translate(12 10.5)"/>
</clipPath>
</defs>
</svg>
