<svg width="24" height="25" viewBox="0 0 24 25" fill="none" xmlns="http://www.w3.org/2000/svg">
<g clip-path="url(#clip0_656_2819)">
<path d="M3 13.5C3 13.2348 3.10536 12.9804 3.29289 12.7929C3.48043 12.6054 3.73478 12.5 4 12.5H8C8.26522 12.5 8.51957 12.6054 8.70711 12.7929C8.89464 12.9804 9 13.2348 9 13.5V19.5C9 19.7652 8.89464 20.0196 8.70711 20.2071C8.51957 20.3946 8.26522 20.5 8 20.5H4C3.73478 20.5 3.48043 20.3946 3.29289 20.2071C3.10536 20.0196 3 19.7652 3 19.5V13.5Z" stroke="#787878" stroke-linecap="round" stroke-linejoin="round"/>
<path d="M9 9.5C9 9.23478 9.10536 8.98043 9.29289 8.79289C9.48043 8.60536 9.73478 8.5 10 8.5H14C14.2652 8.5 14.5196 8.60536 14.7071 8.79289C14.8946 8.98043 15 9.23478 15 9.5V19.5C15 19.7652 14.8946 20.0196 14.7071 20.2071C14.5196 20.3946 14.2652 20.5 14 20.5H10C9.73478 20.5 9.48043 20.3946 9.29289 20.2071C9.10536 20.0196 9 19.7652 9 19.5V9.5Z" stroke="#787878" stroke-linecap="round" stroke-linejoin="round"/>
<path d="M15 5.5C15 5.23478 15.1054 4.98043 15.2929 4.79289C15.4804 4.60536 15.7348 4.5 16 4.5H20C20.2652 4.5 20.5196 4.60536 20.7071 4.79289C20.8946 4.98043 21 5.23478 21 5.5V19.5C21 19.7652 20.8946 20.0196 20.7071 20.2071C20.5196 20.3946 20.2652 20.5 20 20.5H16C15.7348 20.5 15.4804 20.3946 15.2929 20.2071C15.1054 20.0196 15 19.7652 15 19.5V5.5Z" stroke="#787878" stroke-linecap="round" stroke-linejoin="round"/>
<path d="M4 20.5H18" stroke="#787878" stroke-linecap="round" stroke-linejoin="round"/>
</g>
<defs>
<clipPath id="clip0_656_2819">
<rect width="24" height="24" fill="white" transform="translate(0 0.5)"/>
</clipPath>
</defs>
</svg>
