<svg width="40" height="40" viewBox="0 0 40 40" fill="none" xmlns="http://www.w3.org/2000/svg">
<rect width="40" height="40" rx="20" fill="#F5F5F5"/>
<path d="M26.7501 17.71V17.005C26.7501 13.136 23.7261 10 20.0001 10C16.2741 10 13.2501 13.136 13.2501 17.005V17.71C13.2513 18.5516 13.0111 19.3758 12.5581 20.085L11.4501 21.81C10.4391 23.385 11.2111 25.526 12.9701 26.024C17.5664 27.3257 22.4338 27.3257 27.0301 26.024C28.7891 25.526 29.5611 23.385 28.5501 21.811L27.4421 20.086C26.9887 19.3769 26.7482 18.5527 26.7491 17.711L26.7501 17.71Z" stroke="black" stroke-width="1.5"/>
<path d="M15.5 27C16.155 28.748 17.922 30 20 30C22.078 30 23.845 28.748 24.5 27" stroke="black" stroke-width="1.5" stroke-linecap="round"/>
</svg>
