<svg width="17" height="18" viewBox="0 0 17 18" fill="none" xmlns="http://www.w3.org/2000/svg">
<path d="M6.72913 9C7.5745 9 8.38526 8.66417 8.98303 8.0664C9.5808 7.46863 9.91663 6.65788 9.91663 5.8125C9.91663 4.96712 9.5808 4.15637 8.98303 3.5586C8.38526 2.96082 7.5745 2.625 6.72913 2.625C5.88375 2.625 5.073 2.96082 4.47522 3.5586C3.87745 4.15637 3.54163 4.96712 3.54163 5.8125C3.54163 6.65788 3.87745 7.46863 4.47522 8.0664C5.073 8.66417 5.88375 9 6.72913 9ZM14.875 6.875C14.875 7.43858 14.6511 7.97909 14.2526 8.3776C13.854 8.77612 13.3135 9 12.75 9C12.1864 9 11.6459 8.77612 11.2474 8.3776C10.8488 7.97909 10.625 7.43858 10.625 6.875C10.625 6.31141 10.8488 5.77091 11.2474 5.3724C11.6459 4.97388 12.1864 4.75 12.75 4.75C13.3135 4.75 13.854 4.97388 14.2526 5.3724C14.6511 5.77091 14.875 6.31141 14.875 6.875ZM6.72913 9.70833C8.14083 9.70833 9.42433 10.139 10.3678 10.7467C10.8403 11.0513 11.2448 11.4105 11.5387 11.8022C11.827 12.1882 12.0416 12.6522 12.0416 13.1487C12.0416 13.6835 11.7937 14.112 11.4296 14.4216C11.0861 14.712 10.6384 14.9004 10.1759 15.03C9.24583 15.29 8.01546 15.375 6.72913 15.375C5.44279 15.375 4.21242 15.29 3.28308 15.03C2.81983 14.9004 2.37217 14.712 2.02933 14.4216C1.66383 14.1127 1.41663 13.6835 1.41663 13.1487C1.41663 12.6515 1.63125 12.1882 1.91954 11.8029C2.2135 11.4105 2.61796 11.0506 3.09042 10.7475C4.03392 10.1383 5.31742 9.70833 6.72913 9.70833ZM12.75 9.70833C13.685 9.70833 14.5335 10.0172 15.1583 10.4528C15.7405 10.8587 16.2916 11.499 16.2916 12.2378C16.2916 12.6536 16.1124 12.9978 15.8397 13.2479C15.5868 13.4802 15.2667 13.6219 14.9585 13.7154C14.3423 13.9017 13.549 13.9583 12.75 13.9583H12.6062C12.6983 13.7118 12.75 13.4412 12.75 13.1487C12.75 12.4475 12.4503 11.8383 12.1054 11.3779C11.7611 10.9182 11.305 10.5137 10.7957 10.1801C11.4006 9.87035 12.0704 9.70866 12.75 9.70833Z" fill="#9D9D9D"/>
</svg>
