<svg width="17" height="18" viewBox="0 0 17 18" fill="none" xmlns="http://www.w3.org/2000/svg">
<path d="M10.0015 11.5L8.00146 15L7.50146 15.5L7.00146 14.5L6.00146 12L4.00146 11L2.00146 10L3.00146 9L6.00146 7.5L7.00146 5.5L8.00146 4L9.50146 7.5L11.5015 8.5L13.5015 10L10.0015 11.5Z" fill="url(#paint0_radial_258_470)"/>
<path d="M6.45294 4.36421C6.87652 3.12463 8.58928 3.08708 9.09148 4.25158L9.13398 4.36492L9.70561 6.03658C9.83661 6.41996 10.0483 6.77078 10.3264 7.06538C10.6045 7.35999 10.9426 7.59153 11.3178 7.74438L11.4715 7.80175L13.1432 8.37267C14.3827 8.79625 14.4203 10.509 13.2565 11.0112L13.1432 11.0537L11.4715 11.6253C11.088 11.7562 10.737 11.9679 10.4423 12.246C10.1476 12.5241 9.91591 12.8622 9.76298 13.2375L9.70561 13.3905L9.13469 15.0629C8.71111 16.3025 6.99836 16.34 6.49686 15.1762L6.45294 15.0629L5.88202 13.3912C5.75111 13.0077 5.53945 12.6567 5.26134 12.362C4.98323 12.0673 4.64513 11.8356 4.26986 11.6827L4.11686 11.6253L2.44519 11.0544C1.2049 10.6308 1.16736 8.91808 2.33186 8.41658L2.44519 8.37267L4.11686 7.80175C4.50023 7.67075 4.85105 7.45905 5.14566 7.18095C5.44026 6.90284 5.6718 6.56478 5.82465 6.18958L5.88202 6.03658L6.45294 4.36421ZM7.79382 4.82179L7.2229 6.49346C7.02343 7.07805 6.69892 7.61213 6.27199 8.05852C5.84505 8.5049 5.32595 8.85286 4.75082 9.07817L4.57373 9.14263L2.90207 9.71354L4.57373 10.2845C5.15832 10.4839 5.69241 10.8084 6.13879 11.2354C6.58518 11.6623 6.93314 12.1814 7.15844 12.7565L7.2229 12.9336L7.79382 14.6053L8.36473 12.9336C8.56421 12.349 8.88871 11.815 9.31565 11.3686C9.74258 10.9222 10.2617 10.5742 10.8368 10.3489L11.0139 10.2852L12.6856 9.71354L11.0139 9.14263C10.4293 8.94315 9.89523 8.61865 9.44884 8.19171C9.00245 7.76478 8.6545 7.24567 8.42919 6.67054L8.36544 6.49346L7.79382 4.82179ZM13.4605 1.92188C13.593 1.92187 13.7229 1.95905 13.8353 2.02917C13.9477 2.09929 14.0383 2.19954 14.0966 2.31854L14.1306 2.40142L14.3785 3.12817L15.1059 3.37608C15.2387 3.4212 15.3552 3.50473 15.4404 3.61608C15.5257 3.72743 15.576 3.86159 15.585 4.00156C15.5939 4.14153 15.5611 4.281 15.4907 4.40231C15.4203 4.52361 15.3155 4.62129 15.1895 4.68296L15.1059 4.71696L14.3792 4.96488L14.1313 5.69233C14.0861 5.8251 14.0025 5.94145 13.8911 6.02666C13.7797 6.11187 13.6455 6.16209 13.5056 6.17097C13.3656 6.17985 13.2262 6.14697 13.1049 6.07652C12.9836 6.00606 12.886 5.9012 12.8244 5.77521L12.7904 5.69233L12.5425 4.96558L11.815 4.71767C11.6822 4.67255 11.5658 4.58902 11.4805 4.47767C11.3953 4.36632 11.3449 4.23216 11.336 4.09219C11.327 3.95223 11.3598 3.81275 11.4302 3.69144C11.5006 3.57014 11.6055 3.47246 11.7314 3.41079L11.815 3.37679L12.5418 3.12888L12.7897 2.40142C12.8375 2.26147 12.9278 2.13998 13.0481 2.05398C13.1684 1.96798 13.3126 1.92179 13.4605 1.92188Z" fill="#5856D6"/>
<defs>
<radialGradient id="paint0_radial_258_470" cx="0" cy="0" r="1" gradientUnits="userSpaceOnUse" gradientTransform="translate(7.75146 9.75) rotate(90) scale(3.75)">
<stop stop-color="#7E7CE9"/>
<stop offset="1" stop-color="#5856D6"/>
</radialGradient>
</defs>
</svg>
