<svg width="51" height="48" viewBox="0 0 51 48" fill="none" xmlns="http://www.w3.org/2000/svg">
<g clip-path="url(#clip0_656_4465)">
<path d="M2.26595 42H29.2235C30.4629 42 31.4715 40.9905 31.4715 39.75V11.25C31.4715 11.2155 31.4565 11.1855 31.452 11.1525C31.448 11.121 31.4415 11.0899 31.4325 11.0595C31.4024 10.932 31.3393 10.8146 31.2497 10.719L20.7607 0.2205C20.6423 0.107482 20.4902 0.0363615 20.3276 0.018C20.2961 0.015 20.2661 0 20.2317 0H2.25696C1.01308 0 0 1.0095 0 2.25V39.75C0 40.9905 1.01608 42 2.26595 42ZM20.981 2.5605L28.9133 10.5H21.7303C21.5316 10.5 21.341 10.421 21.2005 10.2803C21.0599 10.1397 20.981 9.94891 20.981 9.75V2.5605ZM1.49864 2.25C1.49864 1.836 1.83883 1.5 2.25696 1.5H19.4824V9.75C19.4824 10.9905 20.4909 12 21.7303 12H29.9728V39.75C29.9728 39.9489 29.8939 40.1397 29.7534 40.2803C29.6129 40.421 29.4223 40.5 29.2235 40.5H2.26595C2.16636 40.5012 2.06752 40.4827 1.97506 40.4457C1.8826 40.4086 1.79834 40.3537 1.72709 40.2841C1.65584 40.2144 1.59899 40.1314 1.55979 40.0398C1.5206 39.9481 1.49982 39.8497 1.49864 39.75V2.25Z" fill="url(#paint0_linear_656_4465)"/>
<path d="M6.74346 18H24.7272C24.9259 18 25.1165 17.921 25.257 17.7803C25.3975 17.6397 25.4765 17.4489 25.4765 17.25C25.4765 17.0511 25.3975 16.8603 25.257 16.7197C25.1165 16.579 24.9259 16.5 24.7272 16.5H6.74346C6.54473 16.5 6.35414 16.579 6.21361 16.7197C6.07309 16.8603 5.99414 17.0511 5.99414 17.25C5.99414 17.4489 6.07309 17.6397 6.21361 17.7803C6.35414 17.921 6.54473 18 6.74346 18ZM6.74346 24H24.7272C24.9259 24 25.1165 23.921 25.257 23.7803C25.3975 23.6397 25.4765 23.4489 25.4765 23.25C25.4765 23.0511 25.3975 22.8603 25.257 22.7197C25.1165 22.579 24.9259 22.5 24.7272 22.5H6.74346C6.54473 22.5 6.35414 22.579 6.21361 22.7197C6.07309 22.8603 5.99414 23.0511 5.99414 23.25C5.99414 23.4489 6.07309 23.6397 6.21361 23.7803C6.35414 23.921 6.54473 24 6.74346 24ZM6.74346 12H14.2367C14.4354 12 14.626 11.921 14.7665 11.7803C14.9071 11.6397 14.986 11.4489 14.986 11.25C14.986 11.0511 14.9071 10.8603 14.7665 10.7197C14.626 10.579 14.4354 10.5 14.2367 10.5H6.74346C6.54473 10.5 6.35414 10.579 6.21361 10.7197C6.07309 10.8603 5.99414 11.0511 5.99414 11.25C5.99414 11.4489 6.07309 11.6397 6.21361 11.7803C6.35414 11.921 6.54473 12 6.74346 12ZM6.74346 30H24.7272C24.9259 30 25.1165 29.921 25.257 29.7803C25.3975 29.6397 25.4765 29.4489 25.4765 29.25C25.4765 29.0511 25.3975 28.8603 25.257 28.7197C25.1165 28.579 24.9259 28.5 24.7272 28.5H6.74346C6.54473 28.5 6.35414 28.579 6.21361 28.7197C6.07309 28.8603 5.99414 29.0511 5.99414 29.25C5.99414 29.4489 6.07309 29.6397 6.21361 29.7803C6.35414 29.921 6.54473 30 6.74346 30ZM6.74346 36H24.7272C24.9259 36 25.1165 35.921 25.257 35.7803C25.3975 35.6397 25.4765 35.4489 25.4765 35.25C25.4765 35.0511 25.3975 34.8603 25.257 34.7197C25.1165 34.579 24.9259 34.5 24.7272 34.5H6.74346C6.54473 34.5 6.35414 34.579 6.21361 34.7197C6.07309 34.8603 5.99414 35.0511 5.99414 35.25C5.99414 35.4489 6.07309 35.6397 6.21361 35.7803C6.35414 35.921 6.54473 36 6.74346 36Z" fill="url(#paint1_linear_656_4465)"/>
<path d="M32.2209 7.5H38.9648V15.75C38.9648 16.9905 39.9734 18 41.2127 18H49.4553V45.75C49.4553 45.9489 49.3763 46.1397 49.2358 46.2803C49.0953 46.421 48.9047 46.5 48.7059 46.5H21.7484C21.6488 46.5012 21.5499 46.4827 21.4575 46.4457C21.365 46.4086 21.2808 46.3537 21.2095 46.2841C21.1383 46.2144 21.0814 46.1314 21.0422 46.0398C21.003 45.9481 20.9822 45.8497 20.9811 45.75V44.25C20.9811 44.0511 20.9021 43.8603 20.7616 43.7197C20.6211 43.579 20.4305 43.5 20.2317 43.5C20.033 43.5 19.8424 43.579 19.7019 43.7197C19.5614 43.8603 19.4824 44.0511 19.4824 44.25V45.75C19.4824 46.9905 20.4985 48 21.7484 48H48.7059C49.9453 48 50.9539 46.9905 50.9539 45.75V17.25C50.9539 17.2155 50.9389 17.1855 50.9344 17.1525C50.9304 17.121 50.9239 17.0899 50.9149 17.0595C50.8848 16.932 50.8217 16.8146 50.7321 16.719L40.2431 6.2205C40.1245 6.10803 39.9724 6.03745 39.81 6.0195C39.7785 6.015 39.7486 6 39.7141 6H32.2209C32.0222 6 31.8316 6.07902 31.691 6.21967C31.5505 6.36032 31.4716 6.55109 31.4716 6.75C31.4716 6.94891 31.5505 7.13968 31.691 7.28033C31.8316 7.42098 32.0222 7.5 32.2209 7.5ZM41.2127 16.5C41.014 16.5 40.8234 16.421 40.6829 16.2803C40.5424 16.1397 40.4634 15.9489 40.4634 15.75V8.5605L48.3957 16.5H41.2127Z" fill="url(#paint2_linear_656_4465)"/>
<path d="M35.2181 24H44.2099C44.4087 24 44.5993 23.921 44.7398 23.7803C44.8803 23.6397 44.9592 23.4489 44.9592 23.25C44.9592 23.0511 44.8803 22.8603 44.7398 22.7197C44.5993 22.579 44.4087 22.5 44.2099 22.5H35.2181C35.0193 22.5 34.8287 22.579 34.6882 22.7197C34.5477 22.8603 34.4688 23.0511 34.4688 23.25C34.4688 23.4489 34.5477 23.6397 34.6882 23.7803C34.8287 23.921 35.0193 24 35.2181 24ZM35.2181 30H44.2099C44.4087 30 44.5993 29.921 44.7398 29.7803C44.8803 29.6397 44.9592 29.4489 44.9592 29.25C44.9592 29.0511 44.8803 28.8603 44.7398 28.7197C44.5993 28.579 44.4087 28.5 44.2099 28.5H35.2181C35.0193 28.5 34.8287 28.579 34.6882 28.7197C34.5477 28.8603 34.4688 29.0511 34.4688 29.25C34.4688 29.4489 34.5477 29.6397 34.6882 29.7803C34.8287 29.921 35.0193 30 35.2181 30ZM35.2181 36H44.2099C44.4087 36 44.5993 35.921 44.7398 35.7803C44.8803 35.6397 44.9592 35.4489 44.9592 35.25C44.9592 35.0511 44.8803 34.8603 44.7398 34.7197C44.5993 34.579 44.4087 34.5 44.2099 34.5H35.2181C35.0193 34.5 34.8287 34.579 34.6882 34.7197C34.5477 34.8603 34.4688 35.0511 34.4688 35.25C34.4688 35.4489 34.5477 35.6397 34.6882 35.7803C34.8287 35.921 35.0193 36 35.2181 36ZM35.2181 42H44.2099C44.4087 42 44.5993 41.921 44.7398 41.7803C44.8803 41.6397 44.9592 41.4489 44.9592 41.25C44.9592 41.0511 44.8803 40.8603 44.7398 40.7197C44.5993 40.579 44.4087 40.5 44.2099 40.5H35.2181C35.0193 40.5 34.8287 40.579 34.6882 40.7197C34.5477 40.8603 34.4688 41.0511 34.4688 41.25C34.4688 41.4489 34.5477 41.6397 34.6882 41.7803C34.8287 41.921 35.0193 42 35.2181 42Z" fill="url(#paint3_linear_656_4465)"/>
</g>
<defs>
<linearGradient id="paint0_linear_656_4465" x1="-1.48515e-09" y1="21" x2="50.9999" y2="21.0747" gradientUnits="userSpaceOnUse">
<stop stop-color="#FF006A"/>
<stop offset="1" stop-color="#FFA900"/>
</linearGradient>
<linearGradient id="paint1_linear_656_4465" x1="5.99414" y1="23.25" x2="39.7721" y2="23.2489" gradientUnits="userSpaceOnUse">
<stop stop-color="#FF006A"/>
<stop offset="1" stop-color="#FFA900"/>
</linearGradient>
<linearGradient id="paint2_linear_656_4465" x1="0.501954" y1="27" x2="51.0018" y2="27.074" gradientUnits="userSpaceOnUse">
<stop stop-color="#FF006A"/>
<stop offset="1" stop-color="#FFA900"/>
</linearGradient>
<linearGradient id="paint3_linear_656_4465" x1="34.4688" y1="32.25" x2="52.6569" y2="32.2496" gradientUnits="userSpaceOnUse">
<stop stop-color="#FF006A"/>
<stop offset="1" stop-color="#FFA900"/>
</linearGradient>
<clipPath id="clip0_656_4465">
<rect width="50.9538" height="48" fill="white"/>
</clipPath>
</defs>
</svg>
