<svg width="48" height="48" viewBox="0 0 48 48" fill="none" xmlns="http://www.w3.org/2000/svg">
<path fill-rule="evenodd" clip-rule="evenodd" d="M4.80206 12.123C2.14996 12.123 0 14.273 0 16.9251C0 19.5772 2.14996 21.7272 4.80207 21.7272H8.89377C11.5459 21.7272 13.6958 19.5772 13.6958 16.9251C13.6958 14.273 11.5459 12.123 8.89377 12.123H4.80206ZM4.67409 14.626C3.41081 14.626 2.38672 15.6501 2.38672 16.9134C2.38672 18.1766 3.41081 19.2007 4.6741 19.2007H9.02C10.2833 19.2007 11.3074 18.1766 11.3074 16.9134C11.3074 15.6501 10.2833 14.626 9.02 14.626H4.67409Z" fill="#FFAA01"/>
<path d="M24.7563 19.2015V21.7346H19.7184C17.9964 21.7346 16.7298 21.1369 15.8475 20.1692C15.079 19.3296 14.6094 18.191 14.6094 16.9245C14.6094 15.5298 15.2071 14.2632 16.1606 13.3808C17.0145 12.5981 18.1672 12.1143 19.7184 12.1143H24.7563V14.6617H19.7184C18.8503 14.6617 18.3095 14.9036 17.8968 15.2878C17.4556 15.7006 17.1852 16.2983 17.1852 16.9387C17.1852 17.5222 17.413 18.063 17.783 18.4614C18.1957 18.9168 18.8076 19.2015 19.7184 19.2015H24.7563Z" fill="#FF6B01"/>
<path d="M25.6602 12.1143H36.6894V14.6617H32.477V21.7346H29.8869V14.6617H25.6602V12.1143Z" fill="#F43545"/>
<path d="M47.8406 21.4069L44.3681 13.7789C43.8273 12.5835 42.9307 12 41.593 12C40.2126 12 39.3444 12.5835 38.8037 13.7789L35.3597 21.4069C35.2885 21.5635 35.2458 21.6915 35.2031 21.8339H38.1775C38.1917 21.72 38.2344 21.6062 38.2771 21.4923L38.7752 20.3396L39.7145 18.2191L41.1803 14.7751C41.2799 14.5474 41.4365 14.4763 41.6072 14.4763C41.7922 14.4763 41.963 14.5616 42.0484 14.7751L43.5285 18.2191L44.4677 20.3396L44.9801 21.5065C45.0228 21.6062 45.0654 21.7058 45.0939 21.8339H47.9971C47.9544 21.6915 47.9117 21.5635 47.8406 21.4069Z" fill="#F50368"/>
<path d="M15.6377 31.0278C15.5265 31.1205 15.3968 31.2039 15.2578 31.2039C15.1466 31.2039 15.0446 31.1946 14.9427 31.1483C14.8222 31.0834 14.711 30.9722 14.6554 30.8517C14.6462 30.8332 14.5164 30.4625 14.5164 30.444C14.4794 30.2587 14.4608 30.0826 14.4423 29.8973C14.4423 29.8787 14.4238 29.7675 14.4145 29.749C14.3682 28.2293 14.3589 26.7003 14.5442 25.1898C14.5628 25.1064 14.6276 24.6987 14.6554 24.6153C14.6925 24.5041 14.7296 24.3836 14.7944 24.2817C14.8871 24.1427 15.0817 24.0407 15.2485 24.0407C15.4616 24.0407 15.7118 24.1797 15.786 24.3743C15.823 24.4855 15.9064 24.8747 15.8879 24.9859C15.8601 25.162 15.8786 26.0887 15.8786 26.2647C16.4253 25.996 17.3057 25.44 17.7041 24.9581C17.8524 24.7543 17.9821 24.6245 18.2509 24.6245C18.4362 24.6245 18.6215 24.7079 18.7142 24.8655C18.7605 24.9489 18.8161 25.0415 18.8161 25.1342C18.8161 25.2639 18.7883 25.4122 18.7049 25.5141C18.603 25.6346 18.5381 25.7736 18.4362 25.8941C18.3528 25.996 18.2601 26.0979 18.1675 26.1999C17.7134 26.6354 17.213 27.0431 16.6663 27.3582C17.0925 27.7474 17.4817 28.1829 17.8802 28.5999C17.9914 28.7204 18.4362 29.2208 18.5752 29.2949C18.5845 29.3042 18.6679 29.332 18.6771 29.3413C18.9829 29.5173 19.2239 29.6934 19.2239 30.0733C19.2239 30.4811 18.7142 30.7498 18.3528 30.7498C17.8617 30.7498 17.3149 30.2494 16.9999 29.9158C16.6199 29.5081 16.2771 29.0633 15.8972 28.6463C15.9064 29.0169 15.9064 29.3783 15.9064 29.749C15.9064 29.7583 15.8879 29.8417 15.8879 29.8602C15.8879 29.9436 15.8694 30.3699 15.8416 30.4533C15.8416 30.4811 15.823 30.4996 15.823 30.5274C15.823 30.7035 15.7674 30.9166 15.6377 31.0278ZM21.4333 31.0278C21.3314 31.3151 21.0905 31.5097 20.7754 31.5097C20.3121 31.5097 20.1267 31.1483 19.9877 30.7683C19.858 30.4162 19.8395 28.8316 19.8395 28.4517C19.8395 28.1551 19.8395 26.3667 19.8487 26.0701C19.8487 25.8663 19.8673 25.0045 19.9321 24.8099C19.9785 24.6894 20.0341 24.5504 20.136 24.467C20.2472 24.3651 20.3955 24.2724 20.553 24.2724C20.8588 24.2724 21.1831 24.4485 21.248 24.7728C21.3129 25.1342 21.3407 25.4956 21.3592 25.857C21.4055 27.0617 21.4611 28.2756 21.4333 29.4803C21.4241 29.8509 21.4241 30.2309 21.4055 30.6015C21.4055 30.6201 21.4333 30.6849 21.4333 30.7035C21.4519 30.8054 21.4704 30.9259 21.4333 31.0278ZM24.2588 27.4509C24.2588 28.22 24.2495 28.9891 24.2402 29.7583C25.1298 29.2579 26.5198 28.1737 26.6588 27.1636C26.6866 26.9875 26.6959 26.8022 26.6403 26.6447C26.3623 25.9311 24.8982 25.4493 24.2402 25.3937C24.231 25.3937 24.1846 25.4585 24.1846 25.4771C24.2588 26.1257 24.2588 26.7929 24.2588 27.4509ZM24.0827 31.3243C23.9622 31.5189 23.7213 31.6301 23.4896 31.6301C23.397 31.6301 23.295 31.6116 23.2116 31.5745C23.1931 31.5653 23.1746 31.5653 23.1653 31.5653C23.0819 31.5745 22.9892 31.5838 22.9058 31.5838C22.739 31.5838 22.5815 31.556 22.4332 31.4911C21.9699 31.278 21.8958 30.6386 22.3406 30.3791C22.4518 30.3235 22.5908 30.2865 22.7205 30.305C22.6834 29.8509 22.6834 29.3876 22.6834 28.9243C22.6834 28.4887 22.7668 25.9033 22.7946 25.4678C22.8039 25.2361 22.8132 24.9859 22.9058 24.7821C22.9614 24.6523 23.0726 24.5597 23.1931 24.4855C23.2116 24.4855 23.2302 24.4763 23.2394 24.467C23.5174 24.1334 23.99 24.0593 24.407 24.0593C24.4812 24.0593 24.5553 24.0593 24.6294 24.0685C25.8804 24.1797 27.4187 24.7728 27.9562 25.996C28.16 26.4501 28.1786 26.9968 28.0766 27.4879C27.7245 29.2579 25.6488 30.7498 24.0827 31.3243ZM30.0006 31.3151C29.7319 31.3707 29.4539 31.4263 29.1759 31.4263C28.6848 31.4263 28.2307 31.1575 28.1844 30.6293C28.1658 30.4162 28.2307 30.1845 28.3604 30.027C28.4624 29.9065 28.5458 29.7861 28.6384 29.6656C29.5188 28.5258 30.4918 27.4509 31.2331 26.2277C31.298 26.135 31.3443 26.0331 31.3906 25.9311C30.64 25.8477 29.8802 25.8014 29.1296 25.6717C28.8794 25.6253 28.5921 25.5141 28.4531 25.301C28.3048 25.0879 28.3048 24.8006 28.4531 24.5967C28.6384 24.3187 29.1296 24.2539 29.4261 24.2539C29.528 24.2539 29.63 24.2631 29.6948 24.2909C29.7134 24.3002 29.7968 24.3373 29.8153 24.3373C30.4547 24.3373 31.1034 24.328 31.7428 24.4021C32.2988 24.4577 32.8455 24.7079 32.9752 25.301C33.0401 25.6068 33.0216 25.9497 32.9196 26.2369C32.8548 26.4315 32.7806 26.6169 32.6787 26.7929C32.0949 27.8308 31.298 28.7389 30.5474 29.6656C31.0292 29.5637 31.5204 29.4617 32.0022 29.3505C32.3544 29.2671 32.7158 29.193 33.0679 29.0911C33.1698 29.0633 33.2718 29.0355 33.383 29.0355C33.3922 29.0355 33.4108 29.0355 33.42 29.0355C33.9297 29.0818 34.1521 29.7027 33.7907 30.0641C33.5961 30.2865 32.2154 30.722 31.9281 30.8054C31.2887 31 30.6493 31.1853 30.0006 31.3151Z" fill="#767676"/>
</svg>
