<svg width="48" height="40" viewBox="0 0 48 40" fill="none" xmlns="http://www.w3.org/2000/svg">
<g clip-path="url(#clip0_1_16)">
<mask id="mask0_1_16" style="mask-type:luminance" maskUnits="userSpaceOnUse" x="0" y="0" width="48" height="40">
<path d="M47.6189 0.0107422H0.00390625V39.1755H47.6189V0.0107422Z" fill="white"/>
</mask>
<g mask="url(#mask0_1_16)">
<path d="M18.1231 6.43827C27.4683 2.38756 32.8598 9.08506 33.9968 11.71C35.6121 15.4401 35.4344 19.9439 32.559 24.1153C32.2976 24.4745 32.0581 24.7878 31.8396 25.0602C32.9976 25.0747 35.5533 24.5105 36.5122 22.1394C37.7108 19.1755 38.6107 21.7092 38.6107 22.9167C38.6107 23.795 38.474 26.4052 36.6545 27.6752C37.0004 27.5447 37.3531 27.3839 37.7108 27.189C42.1438 24.7739 41.0703 27.0042 40.5863 27.7379C39.9287 28.7348 37.8918 30.9561 35.3146 31.7995C33.6372 32.3484 29.5638 32.2387 28.3656 30.592C28.9647 31.4702 30.7139 33.2267 32.9185 33.2267C35.6741 33.2267 36.273 33.6657 36.273 34.4341C36.273 35.2026 32.8381 35.5123 30.7032 35.2115C28.3656 34.8822 25.61 33.3363 24.4119 32.0191C24.6516 32.7143 24.9391 34.4781 24.1722 35.971C23.2138 37.8371 21.2969 39.2643 20.2186 39.0447C19.1403 38.8252 19.0204 37.1785 19.8591 35.6417C20.53 34.4122 20.3783 32.2752 20.2186 31.3604C20.0587 32.2387 19.332 34.039 17.7025 34.2146C15.6657 34.4341 12.6704 33.8852 11.3525 35.0928C10.0346 36.3004 9.07615 38.0567 8.11767 37.8372C7.15918 37.6176 7.03937 35.6417 7.87805 34.4341C8.57624 33.4289 11.9314 32.804 13.5197 31.7995C12.7174 31.9824 11.3525 31.8322 10.2741 31.1409C8.99412 30.3203 7.51844 29.165 6.32034 30.592C5.6052 31.4438 5.01812 31.7872 4.58458 31.8322C4.29179 31.8626 4.06902 31.757 3.92414 31.58C3.5647 31.1409 3.56453 28.2867 5.72129 27.4085C6.42006 27.124 7.51771 27.1193 8.71617 27.2119C8.23693 26.6187 7.30241 25.0813 7.39825 23.6762C7.51807 21.9198 8.23693 20.7122 9.31522 20.6025C10.3935 20.4927 10.0341 23.8957 11.7114 24.4446C13.0533 24.8837 14.1726 24.6276 14.5646 24.4446C10.5751 17.4004 10.8931 9.57216 18.1231 6.43827Z" fill="#FECB10"/>
<path d="M28.3656 30.592C29.5638 32.2387 33.6372 32.3484 35.3146 31.7995C37.8918 30.9561 39.9287 28.7348 40.5863 27.7379C41.0703 27.0042 42.1438 24.7739 37.7108 27.189C37.3531 27.3839 37.0004 27.5447 36.6545 27.6752M28.3656 30.592L27.2874 28.3965M28.3656 30.592C28.9647 31.4702 30.7139 33.2267 32.9185 33.2267C35.6741 33.2267 36.273 33.6657 36.273 34.4341C36.273 35.2026 32.8381 35.5123 30.7032 35.2115C28.3656 34.8822 25.61 33.3363 24.4119 32.0191M36.6545 27.6752C33.5704 28.8394 31.0125 27.6054 30.043 26.75C30.2086 26.75 30.7755 26.3873 31.8396 25.0602M36.6545 27.6752C38.474 26.4052 38.6107 23.795 38.6107 22.9167C38.6107 21.7092 37.7108 19.1755 36.5122 22.1394C35.5533 24.5105 32.9976 25.0747 31.8396 25.0602M24.4119 32.0191C23.4534 30.9653 22.8942 30.1895 22.7345 29.9333M24.4119 32.0191C24.6516 32.7143 24.9391 34.4781 24.1722 35.971C23.2138 37.8372 21.2969 39.2643 20.2186 39.0447C19.1403 38.8252 19.0204 37.1785 19.8591 35.6417C20.53 34.4122 20.3783 32.2752 20.2186 31.3604C20.0587 32.2387 19.332 34.039 17.7025 34.2146C15.6657 34.4341 12.6704 33.8852 11.3525 35.0928C10.0346 36.3004 9.07615 38.0567 8.11767 37.8372C7.15918 37.6176 7.03937 35.6417 7.87805 34.4341C8.57624 33.4289 11.9314 32.804 13.5197 31.7995M13.5197 31.7995C13.8393 31.5975 14.0873 31.3799 14.2278 31.1409C15.0665 29.7139 15.6655 28.3965 16.5042 28.0672M13.5197 31.7995C12.7174 31.9824 11.3525 31.8322 10.2741 31.1409C8.99412 30.3204 7.51844 29.165 6.32034 30.592C5.6052 31.4438 5.01812 31.7872 4.58458 31.8322C4.29179 31.8626 4.06902 31.757 3.92414 31.58C3.5647 31.1409 3.56453 28.2867 5.72129 27.4085C6.42006 27.124 7.51771 27.1193 8.71617 27.2119M8.71617 27.2119C11.2168 27.4053 14.1562 28.0228 14.8265 27.4085C15.6651 26.6402 15.4256 26.4206 15.0665 25.4319C14.8968 25.1048 14.7289 24.7755 14.5646 24.4446M8.71617 27.2119C8.23693 26.6187 7.30241 25.0813 7.39826 23.6762C7.51807 21.9198 8.23693 20.7122 9.31522 20.6025C10.3935 20.4927 10.0341 23.8957 11.7114 24.4446C13.0533 24.8837 14.1726 24.6276 14.5646 24.4446M14.5646 24.4446C10.5751 17.4004 10.8931 9.57216 18.1231 6.43827C27.4683 2.38756 32.8598 9.08506 33.9968 11.71C35.6121 15.4401 35.4344 19.9439 32.559 24.1153C32.2976 24.4745 32.0581 24.7878 31.8396 25.0602" stroke="#7D7D7D" stroke-width="0.157609" stroke-linejoin="round"/>
<g style="mix-blend-mode:color-burn">
<path d="M8.53688 28.8832C5.94898 28.7954 4.90263 30.8225 4.70294 31.8471C4.70294 31.9562 5.30199 31.5185 5.90104 31.0793C6.5001 30.6402 6.19357 30.1031 7.6313 29.8836C9.06902 29.6641 9.53896 31.6328 12.3682 31.8471C14.9207 32.0404 14.4076 29.7624 16.4444 28.1151C16.2047 28.0046 14.7078 29.386 13.414 30.109C11.3224 31.278 10.8918 28.9631 8.53688 28.8832Z" fill="#9B9B9B"/>
</g>
<g style="mix-blend-mode:color-burn">
<path d="M9.25515 25.8143C8.39251 24.6727 7.93724 22.8504 7.81743 22.082C7.69762 22.3748 7.43404 23.2017 7.33819 24.1678C7.24233 25.1338 8.25673 26.6193 8.7759 27.2415L10.5731 27.3512C10.4932 27.3146 10.1178 26.956 9.25515 25.8143Z" fill="#9B9B9B"/>
</g>
<g style="mix-blend-mode:color-burn">
<path d="M12.6567 33.4919C10.5481 33.6675 8.57252 36.3145 7.93353 37.7782C8.05335 37.7782 8.3888 37.7562 8.77221 37.6684C9.25145 37.5586 11.2882 35.0338 12.0071 34.5947C12.726 34.1556 16.6796 34.2654 18.1174 34.1556C19.2676 34.0678 20.0343 32.3626 20.274 31.521C19.8746 31.8869 18.9082 32.7066 18.2373 33.0578C17.3985 33.4969 15.2925 33.2723 12.6567 33.4919Z" fill="#9B9B9B"/>
<path d="M20.5156 39.0955C21.5939 38.3637 23.3909 36.5707 23.7504 35.1436C24.0952 33.7745 23.2712 31.3381 23.0315 30.3135L23.9376 31.521C25.5925 32.692 29.022 34.5948 31.6578 34.8144C33.8533 34.9972 35.4519 34.8875 35.971 34.8144C34.6531 35.29 31.3703 35.956 28.7825 34.8144C26.1945 33.6726 24.4742 32.1431 23.9376 31.521L24.3495 32.0699C24.5092 32.6188 24.7567 33.98 24.4692 35.0338C24.1098 36.3512 23.1514 38.2173 20.5156 39.0955Z" fill="#9B9B9B"/>
<path d="M36.9284 29.8667C33.382 31.9744 29.0209 30.4155 28.0624 29.8667L28.5417 30.7449L29.62 31.6231C30.179 31.7694 32.2318 32.5233 35.4906 31.7329C38.7495 30.9424 41.7208 26.9028 41.0019 26.3539C40.5227 26.1344 40.4748 27.7591 36.9284 29.8667Z" fill="#9B9B9B"/>
<path d="M36.9251 25.2655C35.9665 26.6706 34.0496 27.6806 33.2109 28.0098L34.0496 28.1196L35.0081 28.0098L36.8053 27.6806C36.965 27.4976 37.3803 26.978 37.7637 26.3632C38.6263 25.6607 38.6024 23.2163 38.4826 22.082C38.3628 22.5578 37.8835 23.8604 36.9251 25.2655Z" fill="#9B9B9B"/>
</g>
<g style="mix-blend-mode:color-burn">
<path d="M33.2167 17.0259C33.6001 12.1081 30.1017 7.73164 28.3045 6.1582C30.0617 6.45094 33.8398 8.52934 34.8941 14.5011C35.9484 20.4729 32.1384 25.1126 30.1017 26.6861C30.9803 25.5152 32.8333 21.9438 33.2167 17.0259Z" fill="#9B9B9B"/>
</g>
<g style="mix-blend-mode:darken">
<path d="M18.078 20.9816C18.078 21.1985 17.8849 21.3802 17.6392 21.3802C17.3935 21.3802 17.2004 21.1985 17.2004 20.9816C17.2004 20.7647 17.3935 20.5829 17.6392 20.5829C17.8849 20.5829 18.078 20.7647 18.078 20.9816Z" fill="#050505" stroke="black" stroke-width="0.0809262"/>
</g>
<g style="mix-blend-mode:darken">
<path d="M28.3866 20.7677C28.3866 20.9846 28.1935 21.1663 27.9478 21.1663C27.7021 21.1663 27.509 20.9846 27.509 20.7677C27.509 20.5508 27.7021 20.3691 27.9478 20.3691C28.1935 20.3691 28.3866 20.5508 28.3866 20.7677Z" fill="#050505" stroke="black" stroke-width="0.0809262"/>
</g>
<g style="mix-blend-mode:darken">
<path d="M21.4764 21.3113C21.5164 21.5675 21.8119 22.0797 22.6745 22.0797C23.5371 22.0797 23.7528 21.3479 23.7528 20.9819" stroke="black" stroke-width="0.157609"/>
</g>
<path d="M6.38017 16.1494C7.30655 16.1494 8.05752 15.4613 8.05752 14.6125C8.05752 13.7638 7.30655 13.0757 6.38017 13.0757C5.4538 13.0757 4.70282 13.7638 4.70282 14.6125C4.70282 15.4613 5.4538 16.1494 6.38017 16.1494Z" fill="white" fill-opacity="0.7"/>
<path d="M15.9662 5.39207C16.8926 5.39207 17.6436 4.70399 17.6436 3.85521C17.6436 3.00643 16.8926 2.31836 15.9662 2.31836C15.0399 2.31836 14.2889 3.00643 14.2889 3.85521C14.2889 4.70399 15.0399 5.39207 15.9662 5.39207Z" fill="white" fill-opacity="0.7"/>
<path d="M8.78118 11.102C9.17819 11.102 9.50004 10.8071 9.50004 10.4433C9.50004 10.0796 9.17819 9.78467 8.78118 9.78467C8.38416 9.78467 8.06232 10.0796 8.06232 10.4433C8.06232 10.8071 8.38416 11.102 8.78118 11.102Z" fill="white" fill-opacity="0.7"/>
<path d="M4.94524 25.8134C5.34226 25.8134 5.6641 25.5185 5.6641 25.1547C5.6641 24.791 5.34226 24.4961 4.94524 24.4961C4.54822 24.4961 4.22638 24.791 4.22638 25.1547C4.22638 25.5185 4.54822 25.8134 4.94524 25.8134Z" fill="white" fill-opacity="0.7"/>
<path d="M29.8632 2.31779C30.2602 2.31779 30.5821 2.0229 30.5821 1.65914C30.5821 1.29538 30.2602 1.00049 29.8632 1.00049C29.4662 1.00049 29.1443 1.29538 29.1443 1.65914C29.1443 2.0229 29.4662 2.31779 29.8632 2.31779Z" fill="white" fill-opacity="0.7"/>
<path d="M35.1369 4.51106C35.931 4.51106 36.5747 3.92129 36.5747 3.19376C36.5747 2.46624 35.931 1.87646 35.1369 1.87646C34.3429 1.87646 33.6992 2.46624 33.6992 3.19376C33.6992 3.92129 34.3429 4.51106 35.1369 4.51106Z" fill="white" fill-opacity="0.7"/>
<path d="M37.2903 17.2471C37.8197 17.2471 38.2488 16.8539 38.2488 16.3689C38.2488 15.8839 37.8197 15.4907 37.2903 15.4907C36.761 15.4907 36.3318 15.8839 36.3318 16.3689C36.3318 16.8539 36.761 17.2471 37.2903 17.2471Z" fill="white" fill-opacity="0.7"/>
<path d="M41.3606 32.6216C41.89 32.6216 42.3191 32.2285 42.3191 31.7434C42.3191 31.2584 41.89 30.8652 41.3606 30.8652C40.8313 30.8652 40.4022 31.2584 40.4022 31.7434C40.4022 32.2285 40.8313 32.6216 41.3606 32.6216Z" fill="white" fill-opacity="0.7"/>
<path d="M45.5599 29.981C46.2878 29.981 46.8778 29.4403 46.8778 28.7734C46.8778 28.1065 46.2878 27.5659 45.5599 27.5659C44.8321 27.5659 44.242 28.1065 44.242 28.7734C44.242 29.4403 44.8321 29.981 45.5599 29.981Z" fill="white" fill-opacity="0.7"/>
<path d="M43.4036 26.4698C43.7344 26.4698 44.0026 26.2241 44.0026 25.9209C44.0026 25.6178 43.7344 25.3721 43.4036 25.3721C43.0727 25.3721 42.8045 25.6178 42.8045 25.9209C42.8045 26.2241 43.0727 26.4698 43.4036 26.4698Z" fill="white" fill-opacity="0.7"/>
<path d="M38.4906 11.5388C38.7553 11.5388 38.9698 11.3423 38.9698 11.0997C38.9698 10.8572 38.7553 10.6606 38.4906 10.6606C38.2259 10.6606 38.0114 10.8572 38.0114 11.0997C38.0114 11.3423 38.2259 11.5388 38.4906 11.5388Z" fill="white" fill-opacity="0.7"/>
<path d="M5.66276 7.14179C6.32446 7.14179 6.86087 6.65031 6.86087 6.04404C6.86087 5.43777 6.32446 4.94629 5.66276 4.94629C5.00107 4.94629 4.46466 5.43777 4.46466 6.04404C4.46466 6.65031 5.00107 7.14179 5.66276 7.14179Z" fill="white" fill-opacity="0.7"/>
<path d="M1.10808 32.3974C1.76977 32.3974 2.30618 31.9059 2.30618 31.2997C2.30618 30.6934 1.76977 30.2019 1.10808 30.2019C0.446382 30.2019 -0.0900269 30.6934 -0.0900269 31.2997C-0.0900269 31.9059 0.446382 32.3974 1.10808 32.3974Z" fill="white" fill-opacity="0.7"/>
</g>
</g>
<defs>
<clipPath id="clip0_1_16">
<rect width="47.615" height="39.2302" fill="white"/>
</clipPath>
</defs>
</svg>
