<svg width="29" height="30" viewBox="0 0 29 30" fill="none" xmlns="http://www.w3.org/2000/svg">
<path d="M9.1084 23.9261H6.823C3.32356 23.6761 1.75244 20.9861 1.75244 18.5936C1.75244 16.2011 3.32357 13.4992 6.7635 13.2611C7.25152 13.2135 7.68001 13.5944 7.71572 14.0943C7.75142 14.5823 7.38249 15.0108 6.88257 15.0465C4.57342 15.2132 3.53787 16.951 3.53787 18.6055C3.53787 20.26 4.57342 21.9978 6.88257 22.1644H9.1084C9.59642 22.1644 10.0011 22.5691 10.0011 23.0572C10.0011 23.5452 9.59642 23.9261 9.1084 23.9261Z" fill="#292D32"/>
<path d="M20.0715 23.9258C20.0477 23.9258 20.0358 23.9258 20.012 23.9258C19.5239 23.9258 19.0717 23.5211 19.0717 23.033C19.0717 22.5212 19.4525 22.1403 19.9525 22.1403C21.4165 22.1403 22.7258 21.6285 23.7495 20.712C25.6063 19.0932 25.7253 16.7602 25.2254 15.1176C24.7255 13.4869 23.3329 11.6182 20.9047 11.3206C20.5119 11.273 20.2024 10.9754 20.131 10.5827C19.6548 7.72597 18.1194 5.75009 15.7865 5.03591C13.3821 4.28603 10.573 5.02401 8.82324 6.85705C7.12113 8.63058 6.72834 11.1183 7.71628 13.8559C7.88292 14.3202 7.64492 14.832 7.18071 14.9986C6.7165 15.1652 6.20465 14.9272 6.03801 14.463C4.83582 11.1064 5.38336 7.8926 7.53778 5.63106C9.73981 3.3219 13.275 2.40537 16.3102 3.33379C19.0955 4.1908 21.0594 6.48806 21.7736 9.67802C24.2017 10.2256 26.1538 12.0705 26.9275 14.6177C27.7726 17.3911 27.0108 20.2478 24.9278 22.057C23.6066 23.2473 21.8807 23.9258 20.0715 23.9258Z" fill="#292D32"/>
<path d="M14.5107 27.4298C12.1182 27.4298 9.88046 26.1561 8.65446 24.0969C8.52353 23.8946 8.3926 23.6565 8.28548 23.3947C7.88078 22.5496 7.6665 21.5854 7.6665 20.5856C7.6665 16.8124 10.7374 13.7415 14.5107 13.7415C18.2839 13.7415 21.3548 16.8124 21.3548 20.5856C21.3548 21.5973 21.1406 22.5496 20.7121 23.4304C20.6168 23.6565 20.4859 23.8946 20.3431 24.1208C19.1409 26.1561 16.9031 27.4298 14.5107 27.4298ZM14.5107 15.5269C11.7254 15.5269 9.45193 17.8003 9.45193 20.5856C9.45193 21.3236 9.60668 22.0139 9.90425 22.6448C9.99947 22.8471 10.0828 23.0138 10.178 23.1685C11.0826 24.704 12.7371 25.6443 14.4987 25.6443C16.2604 25.6443 17.9149 24.704 18.8076 23.1923C18.9147 23.0138 19.01 22.8471 19.0814 22.6805C19.4028 22.0258 19.5575 21.3355 19.5575 20.5975C19.5694 17.8003 17.2959 15.5269 14.5107 15.5269Z" fill="#292D32"/>
<path d="M13.8362 22.6507C13.6101 22.6507 13.3839 22.5674 13.2054 22.3889L12.027 21.2105C11.6818 20.8653 11.6818 20.294 12.027 19.9488C12.3721 19.6036 12.9435 19.6036 13.2887 19.9488L13.86 20.5201L15.7645 18.7585C16.1335 18.4252 16.6929 18.449 17.0262 18.8061C17.3595 19.1632 17.3357 19.7345 16.9786 20.0678L14.4433 22.4127C14.2647 22.5674 14.0505 22.6507 13.8362 22.6507Z" fill="#292D32"/>
</svg>
