<svg width="59" height="59" viewBox="0 0 59 59" fill="none" xmlns="http://www.w3.org/2000/svg">
<circle cx="29.5126" cy="29.1879" r="28.5669" fill="white" stroke="#CBD0DC" stroke-width="1.24204"/>
<path d="M24.1084 37.9261H21.823C18.3236 37.6761 16.7524 34.9861 16.7524 32.5936C16.7524 30.2011 18.3236 27.4992 21.7635 27.2611C22.2515 27.2135 22.68 27.5944 22.7157 28.0943C22.7514 28.5823 22.3825 29.0108 21.8826 29.0465C19.5734 29.2132 18.5379 30.951 18.5379 32.6055C18.5379 34.26 19.5734 35.9978 21.8826 36.1644H24.1084C24.5964 36.1644 25.0011 36.5691 25.0011 37.0572C25.0011 37.5452 24.5964 37.9261 24.1084 37.9261Z" fill="#292D32"/>
<path d="M35.0715 37.9258C35.0477 37.9258 35.0358 37.9258 35.012 37.9258C34.5239 37.9258 34.0717 37.5211 34.0717 37.033C34.0717 36.5212 34.4525 36.1403 34.9525 36.1403C36.4165 36.1403 37.7258 35.6285 38.7495 34.712C40.6063 33.0932 40.7253 30.7602 40.2254 29.1176C39.7255 27.4869 38.3329 25.6182 35.9047 25.3206C35.5119 25.273 35.2024 24.9754 35.131 24.5827C34.6548 21.726 33.1194 19.7501 30.7865 19.0359C28.3821 18.286 25.573 19.024 23.8232 20.8571C22.1211 22.6306 21.7283 25.1183 22.7163 27.8559C22.8829 28.3202 22.6449 28.832 22.1807 28.9986C21.7165 29.1652 21.2046 28.9272 21.038 28.463C19.8358 25.1064 20.3834 21.8926 22.5378 19.6311C24.7398 17.3219 28.275 16.4054 31.3102 17.3338C34.0955 18.1908 36.0594 20.4881 36.7736 23.678C39.2017 24.2256 41.1538 26.0705 41.9275 28.6177C42.7726 31.3911 42.0108 34.2478 39.9278 36.057C38.6066 37.2473 36.8807 37.9258 35.0715 37.9258Z" fill="#292D32"/>
<path d="M29.5107 41.4298C27.1182 41.4298 24.8805 40.1561 23.6545 38.0969C23.5235 37.8946 23.3926 37.6565 23.2855 37.3947C22.8808 36.5496 22.6665 35.5854 22.6665 34.5856C22.6665 30.8124 25.7374 27.7415 29.5107 27.7415C33.2839 27.7415 36.3548 30.8124 36.3548 34.5856C36.3548 35.5973 36.1406 36.5496 35.7121 37.4304C35.6168 37.6565 35.4859 37.8946 35.3431 38.1208C34.1409 40.1561 31.9031 41.4298 29.5107 41.4298ZM29.5107 29.5269C26.7254 29.5269 24.4519 31.8003 24.4519 34.5856C24.4519 35.3236 24.6067 36.0139 24.9042 36.6448C24.9995 36.8471 25.0828 37.0138 25.178 37.1685C26.0826 38.704 27.7371 39.6443 29.4987 39.6443C31.2604 39.6443 32.9149 38.704 33.8076 37.1923C33.9147 37.0138 34.01 36.8471 34.0814 36.6805C34.4028 36.0258 34.5575 35.3355 34.5575 34.5975C34.5694 31.8003 32.2959 29.5269 29.5107 29.5269Z" fill="#292D32"/>
<path d="M28.8362 36.6507C28.6101 36.6507 28.3839 36.5674 28.2054 36.3889L27.027 35.2105C26.6818 34.8653 26.6818 34.294 27.027 33.9488C27.3721 33.6036 27.9435 33.6036 28.2887 33.9488L28.86 34.5201L30.7645 32.7585C31.1335 32.4252 31.6929 32.449 32.0262 32.8061C32.3595 33.1632 32.3357 33.7345 31.9786 34.0678L29.4433 36.4127C29.2647 36.5674 29.0505 36.6507 28.8362 36.6507Z" fill="#292D32"/>
</svg>
