<svg width="24" height="24" viewBox="0 0 24 24" fill="none" xmlns="http://www.w3.org/2000/svg">
<path d="M11 22.23V20H5.616C5.15533 20 4.771 19.846 4.463 19.538C4.155 19.23 4.00067 18.8454 4 18.384V5.61602C4 5.15535 4.15433 4.77102 4.463 4.46302C4.77167 4.15502 5.156 4.00069 5.616 4.00002H11V1.77002H12V22.23H11ZM14.192 5.00002V4.00002H18.577C19.037 4.00002 19.4213 4.15435 19.73 4.46302C20.0387 4.77169 20.1927 5.15602 20.192 5.61602V18.385C20.192 18.845 20.038 19.2294 19.73 19.538C19.422 19.8467 19.0377 20.0007 18.577 20H14.192V19H18.577C18.7303 19 18.8713 18.936 19 18.808C19.1287 18.68 19.1927 18.5387 19.192 18.384V5.61602C19.192 5.46202 19.128 5.32069 19 5.19202C18.872 5.06335 18.731 4.99935 18.577 5.00002H14.192ZM14.192 12.5V11.5H17.692V12.5H14.192ZM14.192 9.00002V8.00002H17.692V9.00002H14.192ZM7.5 16H11V15H7.5V16ZM7.5 12.5H11V11.5H7.5V12.5ZM7.5 9.00002H11V8.00002H7.5V9.00002Z" fill="#4A4A4A"/>
</svg>
