<svg width="25" height="25" viewBox="0 0 25 25" fill="none" xmlns="http://www.w3.org/2000/svg">
<path d="M19.8298 16.5964L14.2453 11.0809C14.117 10.9656 13.9695 10.9079 13.8028 10.9079C13.6362 10.9079 13.4952 10.9656 13.3798 11.0809L10.9586 13.5021C10.6394 13.8213 10.2542 13.9809 9.80285 13.9809C9.35168 13.9809 8.97285 13.8213 8.66635 13.5021L3.85285 8.6579C3.75935 8.56423 3.70843 8.4504 3.7001 8.3164C3.69176 8.18257 3.74268 8.06048 3.85285 7.95015C3.95935 7.84382 4.07735 7.79065 4.20685 7.79065C4.33635 7.79065 4.45426 7.84382 4.5606 7.95015L9.3606 12.7501C9.47593 12.8655 9.62335 12.9232 9.80285 12.9232C9.98235 12.9232 10.1298 12.8655 10.2453 12.7501L12.6663 10.3289C12.9728 10.0226 13.3517 9.8694 13.8028 9.8694C14.2542 9.8694 14.6331 10.0226 14.9396 10.3289L20.4991 15.8887V13.0964C20.4991 12.9541 20.5468 12.8351 20.6423 12.7396C20.7378 12.6441 20.8568 12.5964 20.9991 12.5964C21.1414 12.5964 21.2603 12.6441 21.3558 12.7396C21.4513 12.8351 21.4991 12.9541 21.4991 13.0964V16.7887C21.4991 17.0207 21.4225 17.2132 21.2693 17.3664C21.1162 17.5197 20.9235 17.5964 20.6913 17.5964H16.9991C16.8568 17.5964 16.7378 17.5487 16.6423 17.4532C16.5468 17.3575 16.4991 17.2386 16.4991 17.0964C16.4991 16.9541 16.5468 16.8352 16.6423 16.7397C16.7378 16.6441 16.8568 16.5964 16.9991 16.5964H19.8298Z" fill="#C92E2E"/>
</svg>
