<svg width="24" height="25" viewBox="0 0 24 25" fill="none" xmlns="http://www.w3.org/2000/svg">
<path d="M3.35285 17.3063C3.24268 17.196 3.19176 17.077 3.2001 16.9495C3.20843 16.822 3.25935 16.7115 3.35285 16.6178L8.16635 11.7485C8.47285 11.4294 8.85168 11.2698 9.30285 11.2698C9.75418 11.2698 10.1394 11.4294 10.4586 11.7485L12.8798 14.1755C12.9952 14.2909 13.1362 14.3485 13.3028 14.3485C13.4695 14.3485 13.617 14.2909 13.7453 14.1755L19.3298 8.66003H16.4991C16.3568 8.66003 16.2378 8.61228 16.1423 8.51678C16.0468 8.42128 15.9991 8.30237 15.9991 8.16003C15.9991 8.0177 16.0468 7.89879 16.1423 7.80329C16.2378 7.70779 16.3568 7.66003 16.4991 7.66003H20.1913C20.4235 7.66003 20.6162 7.7367 20.7693 7.89003C20.9225 8.0432 20.9991 8.23578 20.9991 8.46778V12.16C20.9991 12.3024 20.9513 12.4213 20.8558 12.5168C20.7603 12.6123 20.6414 12.66 20.4991 12.66C20.3568 12.66 20.2378 12.6155 20.1423 12.5265C20.0468 12.4374 19.9991 12.3216 19.9991 12.1793V9.36778L14.4396 14.9275C14.1331 15.2339 13.7542 15.387 13.3028 15.387C12.8517 15.387 12.4728 15.2339 12.1663 14.9275L9.74535 12.5063C9.62985 12.391 9.48235 12.3333 9.30285 12.3333C9.12335 12.3333 8.97593 12.391 8.8606 12.5063L4.0606 17.3063C3.95426 17.4126 3.83635 17.4658 3.70685 17.4658C3.57735 17.4658 3.45935 17.4126 3.35285 17.3063Z" fill="#1B9C42"/>
</svg>
