<svg width="24" height="25" viewBox="0 0 24 25" fill="none" xmlns="http://www.w3.org/2000/svg">
<path d="M8.85033 17.3281L12.0003 15.4281L15.1503 17.3531L14.3253 13.7531L17.1003 11.3531L13.4503 11.0281L12.0003 7.62812L10.5503 11.0031L6.90033 11.3281L9.67533 13.7531L8.85033 17.3281ZM12.0003 17.7781L7.85033 20.2781C7.667 20.3948 7.47533 20.4448 7.27533 20.4281C7.07533 20.4115 6.90033 20.3448 6.75033 20.2281C6.60033 20.1115 6.48366 19.9658 6.40033 19.7911C6.317 19.6165 6.30033 19.4205 6.35033 19.2031L7.45033 14.4781L3.77533 11.3031C3.60866 11.1531 3.50466 10.9821 3.46333 10.7901C3.422 10.5981 3.43433 10.4108 3.50033 10.2281C3.56633 10.0455 3.66633 9.89546 3.80033 9.77812C3.93433 9.66079 4.11766 9.58579 4.35033 9.55313L9.20033 9.12813L11.0753 4.67813C11.1587 4.47813 11.288 4.32812 11.4633 4.22812C11.6387 4.12812 11.8177 4.07812 12.0003 4.07812C12.183 4.07812 12.362 4.12812 12.5373 4.22812C12.7127 4.32812 12.842 4.47813 12.9253 4.67813L14.8003 9.12813L19.6503 9.55313C19.8837 9.58646 20.067 9.66146 20.2003 9.77812C20.3337 9.89479 20.4337 10.0448 20.5003 10.2281C20.567 10.4115 20.5797 10.5991 20.5383 10.7911C20.497 10.9831 20.3927 11.1538 20.2253 11.3031L16.5503 14.4781L17.6503 19.2031C17.7003 19.4198 17.6837 19.6158 17.6003 19.7911C17.517 19.9665 17.4003 20.1121 17.2503 20.2281C17.1003 20.3441 16.9253 20.4108 16.7253 20.4281C16.5253 20.4455 16.3337 20.3955 16.1503 20.2781L12.0003 17.7781Z" fill="#FECB10"/>
</svg>
