<svg width="20" height="20" viewBox="0 0 20 20" fill="none" xmlns="http://www.w3.org/2000/svg">
<rect width="20" height="20" rx="6" fill="#FFF5C0"/>
<g clip-path="url(#clip0_17_2222)">
<g clip-path="url(#clip1_17_2222)">
<path d="M9.51831 5.125H14.2448C14.5966 5.125 14.8816 5.41 14.8816 5.76175V10.8452C14.8816 11.1977 14.5966 11.4828 14.2448 11.4828H10.3808M7.11756 7.75075C7.46576 7.75075 7.79969 7.61243 8.04591 7.36622C8.29212 7.12001 8.43044 6.78607 8.43044 6.43787C8.43044 6.08968 8.29212 5.75574 8.04591 5.50953C7.79969 5.26332 7.46576 5.125 7.11756 5.125C6.76937 5.125 6.43543 5.26332 6.18922 5.50953C5.94301 5.75574 5.80469 6.08968 5.80469 6.43787C5.80469 6.78607 5.94301 7.12001 6.18922 7.36622C6.43543 7.61243 6.76937 7.75075 7.11756 7.75075Z" stroke="#C09810" stroke-linecap="round" stroke-linejoin="round"/>
<path d="M11.5039 8.88744C11.5039 8.46219 11.1589 8.11719 10.7337 8.11719H7.11566C6.5888 8.11739 6.08358 8.32677 5.71103 8.69931C5.33849 9.07186 5.12911 9.57708 5.12891 10.1039V11.8672H5.98016L6.26441 14.8672H7.96691L8.62091 9.65844H10.7337C11.1589 9.65844 11.5039 9.31344 11.5039 8.88744Z" stroke="#C09810" stroke-linecap="round" stroke-linejoin="round"/>
</g>
</g>
<defs>
<clipPath id="clip0_17_2222">
<rect width="14" height="14" fill="white" transform="translate(3 3)"/>
</clipPath>
<clipPath id="clip1_17_2222">
<rect width="10.5" height="10.5" fill="white" transform="translate(4.75 4.75)"/>
</clipPath>
</defs>
</svg>
