<svg width="20" height="20" viewBox="0 0 20 20" fill="none" xmlns="http://www.w3.org/2000/svg">
<rect width="20" height="20" rx="6" fill="#FFE8CE"/>
<path d="M4.75 10C4.75 10.6894 4.8858 11.3721 5.14963 12.0091C5.41347 12.646 5.80018 13.2248 6.28769 13.7123C6.7752 14.1998 7.35395 14.5865 7.99091 14.8504C8.62787 15.1142 9.31056 15.25 10 15.25C10.6894 15.25 11.3721 15.1142 12.0091 14.8504C12.646 14.5865 13.2248 14.1998 13.7123 13.7123C14.1998 13.2248 14.5865 12.646 14.8504 12.0091C15.1142 11.3721 15.25 10.6894 15.25 10C15.25 8.60761 14.6969 7.27226 13.7123 6.28769C12.7277 5.30312 11.3924 4.75 10 4.75C8.60761 4.75 7.27226 5.30312 6.28769 6.28769C5.30312 7.27226 4.75 8.60761 4.75 10Z" stroke="#FA9B47" stroke-linecap="round" stroke-linejoin="round"/>
<path d="M10 7.08594V10.0026L11.75 11.7526" stroke="#FA9B47" stroke-linecap="round" stroke-linejoin="round"/>
</svg>
