<svg width="20" height="20" viewBox="0 0 20 20" fill="none" xmlns="http://www.w3.org/2000/svg">
<path d="M13.4799 10.8333L9.39662 14.9167C9.22995 15.0833 9.14995 15.2778 9.15662 15.5C9.16328 15.7222 9.25023 15.9167 9.41745 16.0833C9.58412 16.2361 9.77856 16.3161 10.0008 16.3233C10.223 16.3306 10.4174 16.2506 10.5841 16.0833L16.0841 10.5833C16.1674 10.5 16.2266 10.4097 16.2616 10.3125C16.2966 10.2153 16.3136 10.1111 16.3124 10C16.3113 9.88889 16.2938 9.78472 16.2599 9.6875C16.2261 9.59028 16.1672 9.5 16.0833 9.41667L10.5833 3.91667C10.4305 3.76389 10.2394 3.6875 10.0099 3.6875C9.7805 3.6875 9.58273 3.76389 9.41662 3.91667C9.24995 4.08333 9.16662 4.28139 9.16662 4.51083C9.16662 4.74028 9.24995 4.93806 9.41662 5.10417L13.4799 9.16667H4.16745C3.93134 9.16667 3.73328 9.24667 3.57328 9.40667C3.41328 9.56667 3.33356 9.76444 3.33412 10C3.33467 10.2356 3.41467 10.4336 3.57411 10.5942C3.73356 10.7547 3.93134 10.8344 4.16745 10.8333H13.4799Z" fill="#232323"/>
</svg>
