<svg width="20" height="20" viewBox="0 0 20 20" fill="none" xmlns="http://www.w3.org/2000/svg">
<path d="M7.58974 4.54521C8.08808 3.08688 10.1031 3.04271 10.6939 4.41271L10.7439 4.54604L11.4164 6.51271C11.5705 6.96374 11.8196 7.37647 12.1468 7.72306C12.474 8.06966 12.8717 8.34205 13.3131 8.52188L13.4939 8.58938L15.4606 9.26104C16.9189 9.75938 16.9631 11.7744 15.5939 12.3652L15.4606 12.4152L13.4939 13.0877C13.0427 13.2417 12.6298 13.4907 12.2831 13.8179C11.9363 14.1451 11.6638 14.5429 11.4839 14.9844L11.4164 15.1644L10.7447 17.1319C10.2464 18.5902 8.23141 18.6344 7.64141 17.2652L7.58974 17.1319L6.91808 15.1652C6.76406 14.714 6.51505 14.3011 6.18786 13.9544C5.86067 13.6076 5.4629 13.3351 5.02141 13.1552L4.84141 13.0877L2.87474 12.416C1.41558 11.9177 1.37141 9.90271 2.74141 9.31271L2.87474 9.26104L4.84141 8.58938C5.29244 8.43526 5.70517 8.1862 6.05176 7.85902C6.39836 7.53183 6.67075 7.13412 6.85058 6.69271L6.91808 6.51271L7.58974 4.54521ZM9.16724 5.08354L8.49558 7.05021C8.2609 7.73796 7.87913 8.36629 7.37686 8.89146C6.87458 9.41662 6.26386 9.82598 5.58724 10.091L5.37891 10.1669L3.41224 10.8385L5.37891 11.5102C6.06666 11.7449 6.695 12.1267 7.22016 12.6289C7.74532 13.1312 8.15468 13.7419 8.41974 14.4185L8.49558 14.6269L9.16724 16.5935L9.83891 14.6269C10.0736 13.9391 10.4554 13.3108 10.9576 12.7856C11.4599 12.2605 12.0706 11.8511 12.7472 11.586L12.9556 11.511L14.9222 10.8385L12.9556 10.1669C12.2678 9.9322 11.6395 9.55043 11.1143 9.04816C10.5892 8.54588 10.1798 7.93516 9.91474 7.25854L9.83974 7.05021L9.16724 5.08354ZM15.8339 1.67188C15.9898 1.67187 16.1426 1.71561 16.2749 1.7981C16.4072 1.8806 16.5136 1.99854 16.5822 2.13854L16.6222 2.23604L16.9139 3.09104L17.7697 3.38271C17.926 3.43579 18.0629 3.53405 18.1633 3.66505C18.2636 3.79605 18.3228 3.95389 18.3333 4.11856C18.3438 4.28323 18.3053 4.44732 18.2224 4.59003C18.1396 4.73274 18.0163 4.84766 17.8681 4.92021L17.7697 4.96021L16.9147 5.25188L16.6231 6.10771C16.5699 6.2639 16.4716 6.40079 16.3405 6.50104C16.2095 6.60128 16.0516 6.66037 15.8869 6.67081C15.7223 6.68125 15.5582 6.64258 15.4156 6.55969C15.2729 6.4768 15.1581 6.35343 15.0856 6.20521L15.0456 6.10771L14.7539 5.25271L13.8981 4.96104C13.7418 4.90796 13.6049 4.8097 13.5046 4.6787C13.4042 4.5477 13.345 4.38986 13.3345 4.22519C13.324 4.06052 13.3626 3.89643 13.4454 3.75372C13.5282 3.61101 13.6515 3.49609 13.7997 3.42354L13.8981 3.38354L14.7531 3.09188L15.0447 2.23604C15.1009 2.0714 15.2072 1.92847 15.3488 1.82729C15.4903 1.72612 15.6599 1.67177 15.8339 1.67188Z" fill="#4400B0"/>
</svg>
